<svg width="28" height="33" viewBox="0 0 28 33" fill="none" xmlns="http://www.w3.org/2000/svg">
<path d="M11.8832 21.7723C10.9612 26.2716 9.83767 30.5847 6.5056 32.8376C5.47846 26.038 8.01476 20.9326 9.19439 15.5118C7.18393 12.3587 9.43628 6.01655 13.6728 7.58003C18.8874 9.50131 9.15758 19.2972 15.6885 20.5225C22.5087 21.7984 25.2921 9.49477 21.0626 5.49375C14.9541 -0.286408 3.27869 5.35815 4.71599 13.633C5.0648 15.6556 7.30663 16.2682 5.61167 19.0603C1.70117 18.2532 0.533809 15.3779 0.684549 11.5451C0.926436 5.27156 6.72996 0.881714 12.5528 0.27233C19.9163 -0.49716 26.8276 2.79319 27.7828 9.24808C28.8573 16.5362 24.4595 24.4304 16.5842 23.8619C14.4493 23.7067 13.5554 22.7199 11.8832 21.7723Z" fill="url(#paint0_linear_1_16821)"/>
<defs>
<linearGradient id="paint0_linear_1_16821" x1="25.9476" y1="-1.90786" x2="-4.92531" y2="17.6319" gradientUnits="userSpaceOnUse">
<stop stop-color="#E89B93"/>
<stop offset="1" stop-color="#E89B93"/>
</linearGradient>
</defs>
</svg>
