<svg width="39" height="34" viewBox="0 0 39 34" fill="none" xmlns="http://www.w3.org/2000/svg">
<path d="M9.82005 5.71281C8.86026 7.71595 9.23938 11.3049 9.39294 13.8148C8.35637 14.3498 7.02547 13.4109 6.27204 13.4109C5.48821 13.4109 4.55242 13.8908 4.40525 14.6062C4.29968 15.1219 4.54762 15.8731 6.32643 16.5274C7.01427 16.7807 8.65071 17.0788 9.02982 17.9105C9.5625 19.079 6.29443 24.4728 1.16278 25.2598C0.969032 25.2896 0.793945 25.3851 0.671127 25.5279C0.548309 25.6706 0.486414 25.8506 0.497325 26.0333C0.586905 27.4865 4.08373 28.0558 5.63378 28.2794C5.79214 28.4791 5.92012 29.3227 6.12327 29.9651C6.21445 30.2527 6.4496 30.597 7.05426 30.597C7.84289 30.597 9.153 30.0306 11.4341 30.3824C13.6704 30.7296 15.7723 33.6837 19.8082 33.6837C23.5594 33.6837 25.7973 30.7162 27.9504 30.3824C29.1965 30.1901 30.2667 30.2512 31.4632 30.4688C32.287 30.6194 33.0261 30.7028 33.2612 29.9487C33.4676 29.2973 33.5939 28.4702 33.7491 28.2749C35.2848 28.0528 38.7976 27.485 38.8856 26.0318C38.8965 25.8491 38.8346 25.6691 38.7118 25.5264C38.5889 25.3836 38.4139 25.2881 38.2201 25.2583C33.1748 24.4833 29.8076 19.1058 30.3531 17.909C30.7306 17.0788 32.3558 16.7837 33.0565 16.5259C34.3586 16.0474 35.0112 15.4587 34.9968 14.7776C34.9792 13.9057 33.8531 13.3855 33.0245 13.3855C32.1815 13.3855 30.9705 14.3156 29.9899 13.8118C30.1435 11.2811 30.521 7.7085 29.5628 5.70685C27.7472 1.91669 23.7082 0 19.6707 0C15.6587 0 11.65 1.88986 9.82005 5.71281Z" fill="url(#paint0_linear_1_16832)"/>
<defs>
<linearGradient id="paint0_linear_1_16832" x1="36.0777" y1="-2.1339" x2="1.23534" y2="27.9805" gradientUnits="userSpaceOnUse">
<stop stop-color="#E89B93"/>
<stop offset="1" stop-color="#E89B93"/>
</linearGradient>
</defs>
</svg>
