<svg width="39" height="34" viewBox="0 0 39 34" fill="none" xmlns="http://www.w3.org/2000/svg">
<path d="M38.4668 3.9955C37.055 4.67069 35.5384 5.12689 33.944 5.3331C35.5891 4.27067 36.8199 2.59853 37.4067 0.628688C35.8611 1.61955 34.1695 2.31701 32.4054 2.69075C31.2191 1.3237 29.6479 0.417602 27.9356 0.113126C26.2233 -0.191351 24.4657 0.122829 22.9358 1.00689C21.4059 1.89095 20.1892 3.29542 19.4746 5.00226C18.7601 6.70911 18.5876 8.62281 18.9841 10.4463C15.8522 10.2766 12.7884 9.398 9.99157 7.86762C7.19469 6.33723 4.72721 4.18923 2.74928 1.563C2.07297 2.82213 1.6841 4.282 1.6841 5.83675C1.68334 7.23639 2.00269 8.61459 2.61381 9.84907C3.22494 11.0835 4.10893 12.1361 5.18737 12.9134C3.93667 12.8705 2.71356 12.5057 1.61985 11.8496V11.9591C1.61972 13.9221 2.24887 15.8247 3.40054 17.3441C4.55221 18.8635 6.15546 19.9061 7.93826 20.2949C6.77802 20.6338 5.5616 20.6837 4.38087 20.4409C4.88387 22.13 5.86367 23.607 7.1831 24.6652C8.50253 25.7234 10.0955 26.3099 11.7391 26.3424C8.94906 28.7063 5.50336 29.9885 1.95631 29.9829C1.32799 29.9831 0.700195 29.9435 0.0761719 29.8643C3.67663 32.3628 7.86782 33.6888 12.1483 33.6837C26.6382 33.6837 34.5594 20.731 34.5594 9.49736C34.5594 9.1324 34.551 8.76378 34.5358 8.39881C36.0766 7.1962 37.4066 5.707 38.4634 4.00097L38.4668 3.9955Z" fill="url(#paint0_linear_1_16823)"/>
<defs>
<linearGradient id="paint0_linear_1_16823" x1="1.94889" y1="2.55179" x2="25.5471" y2="26.5527" gradientUnits="userSpaceOnUse">
<stop stop-color="#E89B93"/>
<stop offset="1" stop-color="#E89B93"/>
</linearGradient>
</defs>
</svg>
